<svg width="685" height="399" viewBox="0 0 685 399" fill="none" xmlns="http://www.w3.org/2000/svg">
<path d="M414.575 191.75C402.075 187.05 402.075 169.1 401.3 156.6C398.175 112.075 413.8 44.1 395.05 15.2C381.775 -2 317.7 -0.425004 278.65 1.925C267.7 3.5 254.425 5.82502 245.05 10.525C235.675 15.225 226.3 23.025 226.3 30.05C226.3 40.2 249.75 38.65 258.325 51.925C267.7 66 267.7 96.45 267.7 121.45C267.7 150.35 263 188.65 251.3 190.2C233.325 190.975 223.175 173 213.8 159.725C195.05 133.95 176.3 101.9 162.225 70.65C155.2 54.25 151.275 36.275 141.125 29.25C125.5 18.3 97.375 17.525 70.025 18.3C45.025 19.075 9.07497 15.95 2.04998 30.8C-3.42502 47.2 8.29998 62.825 14.55 76.125C46.575 145.65 80.95 206.6 123.15 264.4C162.225 318.3 198.925 361.275 270.8 383.925C291.125 390.175 380.175 408.15 398.15 383.925C404.4 374.55 402.85 353.45 405.975 337.825C409.1 322.2 413 306.575 427.85 305.8C440.35 305.025 447.375 315.95 455.2 323.775C463.8 332.375 470.825 339.4 477.075 347.225C491.925 362.075 507.55 382.375 526.3 390.2C552.075 401.15 591.925 398.025 629.425 396.45C659.9 395.675 681.775 389.425 684.125 371.45C685.7 357.375 670.05 337.075 660.675 325.35C637.225 296.45 626.3 287.85 599.725 261.275C588 249.55 573.15 237.05 573.15 223C572.375 214.4 579.4 206.6 585.65 198C613 157.375 640.35 128.475 665.35 86.275C672.375 73.775 688.8 44.875 682.55 30.8C675.525 15.175 636.45 19.85 612.225 19.85C580.975 19.85 540.35 17.5 532.525 23.75C517.675 33.9 511.425 50.325 504.4 65.95C488.775 101.9 467.675 138.6 445.8 165.95C437.975 175.325 423.15 194.85 414.55 191.725L414.575 191.75Z" fill="#BEBEBE"/>
</svg>
